<svg width="234" height="76" viewBox="0 0 234 76" fill="none" xmlns="http://www.w3.org/2000/svg">
<path d="M262 75.3752C262 75.3752 205.531 -5.35896 218.663 20.81C231.796 46.9791 218.663 75.3752 218.663 75.3752H262Z" fill="#9EA356"/>
<path d="M226.543 75.3752C226.543 75.3752 170.074 -5.35896 183.206 20.81C196.339 46.9791 183.206 75.3752 183.206 75.3752H226.543Z" fill="#9EA356"/>
<path d="M243.615 68.6938C243.615 68.6938 187.146 -12.0404 200.278 14.1287C213.41 40.2977 200.278 68.6938 200.278 68.6938H243.615Z" fill="#9EA356"/>
<path d="M205.531 65.9098C205.531 65.9098 149.062 -14.8244 162.194 11.3447C175.326 37.5137 162.194 65.9098 162.194 65.9098H205.531Z" fill="#9EA356"/>
<path d="M197.652 75.3752C197.652 75.3752 141.183 -5.35896 154.315 20.81C167.447 46.9791 154.315 75.3752 154.315 75.3752H197.652Z" fill="#9EA356"/>
<path d="M159.568 75.3752C159.568 75.3752 103.099 -5.35896 116.231 20.81C129.363 46.9791 116.231 75.3752 116.231 75.3752H159.568Z" fill="#9EA356"/>
<path d="M175.327 74.2617C175.327 74.2617 118.858 -6.47249 131.99 19.6965C145.123 45.8655 131.99 74.2617 131.99 74.2617H175.327Z" fill="#9EA356"/>
<path d="M101.786 75.3752C101.786 75.3752 45.3172 -5.35896 58.4495 20.81C71.5817 46.9791 58.4495 75.3752 58.4495 75.3752H101.786Z" fill="#9EA356"/>
<path d="M129.364 75.3752C129.364 75.3752 72.8948 -5.35896 86.0271 20.81C99.1594 46.9791 86.0271 75.3752 86.0271 75.3752H129.364Z" fill="#9EA356"/>
<path d="M135.93 63.1259C135.93 63.1259 79.4612 -17.6083 92.5935 8.56072C105.726 34.7297 92.5935 63.1259 92.5935 63.1259H135.93Z" fill="#9EA356"/>
<path d="M103.099 59.7852C103.099 59.7852 46.6306 -20.949 59.7629 5.22002C72.8952 31.389 59.7629 59.7852 59.7629 59.7852H103.099Z" fill="#9EA356"/>
<path d="M79.4608 75.3752C79.4608 75.3752 22.992 -5.35896 36.1243 20.81C49.2565 46.9791 36.1243 75.3752 36.1243 75.3752H79.4608Z" fill="#9EA356"/>
<path d="M57.1361 68.6938C57.1361 68.6938 0.667259 -12.0404 13.7995 14.1287C26.9318 40.2977 13.7995 68.6938 13.7995 68.6938H57.1361Z" fill="#9EA356"/>
<path d="M45.3173 75.3752C45.3173 75.3752 -11.1516 -5.35896 1.9807 20.81C15.113 46.9791 1.9807 75.3752 1.9807 75.3752H45.3173Z" fill="#9EA356"/>
</svg>
