<svg width="236" height="76" viewBox="0 0 236 76" fill="none" xmlns="http://www.w3.org/2000/svg">
<path d="M-26 75.3752C-26 75.3752 30.4688 -5.35896 17.3366 20.81C4.20427 46.9791 17.3366 75.3752 17.3366 75.3752H-26Z" fill="#9EA356"/>
<path d="M9.45703 75.3752C9.45703 75.3752 65.9259 -5.35896 52.7936 20.81C39.6613 46.9791 52.7936 75.3752 52.7936 75.3752H9.45703Z" fill="#9EA356"/>
<path d="M-7.61475 68.6938C-7.61475 68.6938 48.8541 -12.0404 35.7218 14.1287C22.5895 40.2977 35.7218 68.6938 35.7218 68.6938H-7.61475Z" fill="#9EA356"/>
<path d="M30.4692 65.9098C30.4692 65.9098 86.9381 -14.8244 73.8058 11.3447C60.6735 37.5137 73.8058 65.9098 73.8058 65.9098H30.4692Z" fill="#9EA356"/>
<path d="M38.3481 75.3752C38.3481 75.3752 94.817 -5.35896 81.6847 20.81C68.5524 46.9791 81.6847 75.3752 81.6847 75.3752H38.3481Z" fill="#9EA356"/>
<path d="M76.4321 75.3752C76.4321 75.3752 132.901 -5.35896 119.769 20.81C106.636 46.9791 119.769 75.3752 119.769 75.3752H76.4321Z" fill="#9EA356"/>
<path d="M60.6729 74.2617C60.6729 74.2617 117.142 -6.47249 104.009 19.6965C90.8771 45.8655 104.009 74.2617 104.009 74.2617H60.6729Z" fill="#9EA356"/>
<path d="M134.214 75.3752C134.214 75.3752 190.683 -5.35896 177.55 20.81C164.418 46.9791 177.55 75.3752 177.55 75.3752H134.214Z" fill="#9EA356"/>
<path d="M106.636 75.3752C106.636 75.3752 163.105 -5.35896 149.973 20.81C136.84 46.9791 149.973 75.3752 149.973 75.3752H106.636Z" fill="#9EA356"/>
<path d="M100.07 63.1259C100.07 63.1259 156.539 -17.6083 143.406 8.56072C130.274 34.7297 143.406 63.1259 143.406 63.1259H100.07Z" fill="#9EA356"/>
<path d="M132.9 59.7852C132.9 59.7852 189.369 -20.949 176.237 5.22002C163.105 31.389 176.237 59.7852 176.237 59.7852H132.9Z" fill="#9EA356"/>
<path d="M156.539 75.3752C156.539 75.3752 213.008 -5.35896 199.876 20.81C186.743 46.9791 199.876 75.3752 199.876 75.3752H156.539Z" fill="#9EA356"/>
<path d="M178.864 68.6938C178.864 68.6938 235.333 -12.0404 222.2 14.1287C209.068 40.2977 222.2 68.6938 222.2 68.6938H178.864Z" fill="#9EA356"/>
<path d="M190.683 75.3752C190.683 75.3752 247.151 -5.35896 234.019 20.81C220.887 46.9791 234.019 75.3752 234.019 75.3752H190.683Z" fill="#9EA356"/>
</svg>
