<svg width="304" height="215" viewBox="0 0 304 215" fill="none" xmlns="http://www.w3.org/2000/svg">
<g filter="url(#filter0_dd_2168_3558)">
<ellipse cx="87.1268" cy="102.484" rx="37.3746" ry="36.9971" fill="#D9D9D9"/>
<ellipse cx="143" cy="73.7925" rx="37.3746" ry="36.9971" fill="#D9D9D9"/>
<ellipse cx="143" cy="125.89" rx="37.3746" ry="36.9971" fill="#D9D9D9"/>
<ellipse cx="87.1268" cy="139.481" rx="37.3746" ry="36.9971" fill="#D9D9D9"/>
<ellipse cx="49.3746" cy="125.89" rx="37.3746" ry="36.9971" fill="#D9D9D9"/>
<ellipse cx="198.873" cy="141.746" rx="37.3746" ry="36.9971" fill="#D9D9D9"/>
<ellipse cx="143" cy="147.787" rx="37.3746" ry="36.9971" fill="#D9D9D9"/>
<ellipse cx="198.873" cy="102.484" rx="37.3746" ry="36.9971" fill="#D9D9D9"/>
<ellipse cx="236.625" cy="125.89" rx="37.3746" ry="36.9971" fill="#D9D9D9"/>
<ellipse cx="87.9874" cy="95.1209" rx="37.0515" ry="36.6773" fill="white"/>
<ellipse cx="143.378" cy="66.6773" rx="37.0515" ry="36.6773" fill="white"/>
<ellipse cx="143.378" cy="118.325" rx="37.0515" ry="36.6773" fill="white"/>
<ellipse cx="87.9874" cy="128.804" rx="37.0515" ry="36.6773" fill="white"/>
<ellipse cx="50.5616" cy="118.325" rx="37.0515" ry="36.6773" fill="white"/>
<ellipse cx="198.768" cy="131.798" rx="37.0515" ry="36.6773" fill="white"/>
<ellipse cx="143.378" cy="137.786" rx="37.0515" ry="36.6773" fill="white"/>
<ellipse cx="198.768" cy="95.1209" rx="37.0515" ry="36.6773" fill="white"/>
<ellipse cx="236.193" cy="118.325" rx="37.0515" ry="36.6773" fill="white"/>
</g>
<path d="M84.4387 107.22C84.204 107.22 84.0207 107.191 83.8887 107.132C83.7713 107.073 83.6833 106.993 83.6247 106.89C83.5807 106.773 83.544 106.648 83.5147 106.516C83.4853 106.369 83.4633 106.208 83.4487 106.032L82.7667 100.928C82.664 100.151 82.598 99.454 82.5687 98.838C82.554 98.2073 82.598 97.65 82.7007 97.166C82.818 96.682 83.0013 96.2567 83.2507 95.89L84.8347 95.978C84.732 96.154 84.644 96.3667 84.5707 96.616C84.512 96.8653 84.468 97.144 84.4387 97.452C84.424 97.76 84.424 98.0973 84.4387 98.464C84.4533 98.816 84.4827 99.2047 84.5267 99.63C84.5707 100.041 84.622 100.488 84.6807 100.972L85.3407 106.01C85.3993 106.435 85.3627 106.743 85.2307 106.934C85.1133 107.125 84.8493 107.22 84.4387 107.22ZM81.2047 96.176C81.014 96.176 80.838 96.154 80.6767 96.11C80.53 96.0513 80.4127 95.9487 80.3247 95.802C80.2367 95.6553 80.1927 95.45 80.1927 95.186C80.1927 94.9073 80.2367 94.702 80.3247 94.57C80.4127 94.438 80.53 94.3427 80.6767 94.284C80.838 94.2253 81.0067 94.196 81.1827 94.196H86.5947C86.7853 94.196 86.9467 94.2253 87.0787 94.284C87.2253 94.3427 87.3427 94.438 87.4307 94.57C87.5187 94.702 87.5627 94.9073 87.5627 95.186C87.5627 95.45 87.5187 95.6553 87.4307 95.802C87.3427 95.9487 87.2253 96.0513 87.0787 96.11C86.932 96.154 86.7633 96.176 86.5727 96.176H81.2047ZM98.3071 107.22C98.0431 107.22 97.8378 107.183 97.6911 107.11C97.5591 107.037 97.4638 106.934 97.4051 106.802C97.3464 106.655 97.3171 106.509 97.3171 106.362V100.972C97.3171 100.18 97.2291 99.4833 97.0531 98.882C96.8918 98.2807 96.6351 97.782 96.2831 97.386C95.9458 96.9753 95.5204 96.6747 95.0071 96.484C94.5084 96.2787 93.9218 96.176 93.2471 96.176H90.5851C90.3798 96.176 90.2038 96.154 90.0571 96.11C89.9104 96.0513 89.7931 95.9487 89.7051 95.802C89.6171 95.6553 89.5731 95.45 89.5731 95.186C89.5731 94.9073 89.6171 94.702 89.7051 94.57C89.7931 94.438 89.9104 94.3427 90.0571 94.284C90.2038 94.2253 90.3724 94.196 90.5631 94.196H93.1811C94.1931 94.196 95.0731 94.3427 95.8211 94.636C96.5838 94.9147 97.2218 95.34 97.7351 95.912C98.2484 96.4693 98.6298 97.166 98.8791 98.002C99.1431 98.838 99.2751 99.8133 99.2751 100.928V106.208C99.2751 106.399 99.2458 106.575 99.1871 106.736C99.1431 106.883 99.0478 107 98.9011 107.088C98.7691 107.176 98.5711 107.22 98.3071 107.22ZM113.617 107.066C113.383 107.242 113.177 107.337 113.001 107.352C112.84 107.381 112.701 107.352 112.583 107.264C112.466 107.176 112.349 107.059 112.231 106.912L103.453 96.242C103.277 96.022 103.131 95.824 103.013 95.648C102.911 95.4573 102.874 95.274 102.903 95.098C102.947 94.922 103.101 94.7313 103.365 94.526C103.615 94.3353 103.82 94.2547 103.981 94.284C104.157 94.2987 104.319 94.3793 104.465 94.526C104.627 94.6727 104.795 94.8633 104.971 95.098L113.749 105.746C113.881 105.893 113.969 106.039 114.013 106.186C114.072 106.318 114.072 106.465 114.013 106.626C113.955 106.773 113.823 106.919 113.617 107.066ZM102.639 107.198C102.361 107.125 102.17 107.022 102.067 106.89C101.965 106.758 101.913 106.597 101.913 106.406C101.928 106.201 101.965 105.988 102.023 105.768L104.597 96.968L106.203 97.628L103.915 106.164C103.842 106.457 103.761 106.692 103.673 106.868C103.6 107.044 103.483 107.154 103.321 107.198C103.175 107.257 102.947 107.257 102.639 107.198ZM110.801 103.392L110.053 102.754L111.945 95.362C112.019 95.1273 112.092 94.922 112.165 94.746C112.253 94.57 112.378 94.4453 112.539 94.372C112.715 94.2987 112.965 94.3133 113.287 94.416C113.566 94.504 113.749 94.6213 113.837 94.768C113.925 94.9 113.955 95.0613 113.925 95.252C113.896 95.4427 113.845 95.6627 113.771 95.912L112.297 101.456C112.209 101.764 112.107 102.028 111.989 102.248C111.872 102.453 111.718 102.644 111.527 102.82C111.337 102.996 111.095 103.187 110.801 103.392ZM128.236 100.136V106.23C128.236 106.509 128.214 106.721 128.17 106.868C128.126 107 128.038 107.088 127.906 107.132C127.774 107.191 127.569 107.22 127.29 107.22H121.944C121.768 107.22 121.599 107.191 121.438 107.132C121.291 107.073 121.174 106.978 121.086 106.846C120.998 106.699 120.954 106.494 120.954 106.23C120.954 105.951 120.998 105.746 121.086 105.614C121.174 105.467 121.291 105.372 121.438 105.328C121.599 105.269 121.775 105.24 121.966 105.24H126.3V100.202C126.3 99.2487 126.175 98.464 125.926 97.848C125.691 97.232 125.339 96.7773 124.87 96.484C124.415 96.1907 123.858 96.044 123.198 96.044C122.714 96.044 122.274 96.154 121.878 96.374C121.482 96.5793 121.137 96.8727 120.844 97.254C120.551 97.6353 120.294 98.09 120.074 98.618C119.869 99.1313 119.693 99.7033 119.546 100.334L118.358 106.164C118.329 106.355 118.285 106.531 118.226 106.692C118.167 106.853 118.065 106.978 117.918 107.066C117.786 107.169 117.595 107.22 117.346 107.22C116.965 107.22 116.693 107.139 116.532 106.978C116.371 106.802 116.319 106.553 116.378 106.23L117.94 98.486L118.644 98.948C118.791 98.4053 118.967 97.892 119.172 97.408C119.377 96.9093 119.605 96.462 119.854 96.066C120.118 95.6553 120.426 95.3033 120.778 95.01C121.13 94.7167 121.526 94.4893 121.966 94.328C122.421 94.1667 122.949 94.086 123.55 94.086C124.547 94.086 125.391 94.3133 126.08 94.768C126.784 95.208 127.319 95.8827 127.686 96.792C128.053 97.6867 128.236 98.8013 128.236 100.136ZM117.896 100.752L116.488 95.494C116.429 95.2887 116.4 95.1053 116.4 94.944C116.4 94.7827 116.451 94.6433 116.554 94.526C116.671 94.394 116.869 94.2913 117.148 94.218C117.485 94.1447 117.735 94.1447 117.896 94.218C118.057 94.2913 118.167 94.4087 118.226 94.57C118.285 94.7167 118.329 94.856 118.358 94.988L119.392 99.014L117.896 100.752ZM134.239 107.154C133.887 106.978 133.66 106.787 133.557 106.582C133.455 106.377 133.491 106.142 133.667 105.878C134.342 104.837 134.943 103.869 135.471 102.974C136.014 102.065 136.491 101.207 136.901 100.4C137.327 99.5787 137.701 98.7647 138.023 97.958C138.346 97.1513 138.625 96.3227 138.859 95.472L140.333 96.594C139.996 97.694 139.6 98.75 139.145 99.762C138.691 100.774 138.17 101.83 137.583 102.93C136.997 104.03 136.307 105.262 135.515 106.626C135.427 106.802 135.317 106.949 135.185 107.066C135.068 107.183 134.929 107.257 134.767 107.286C134.621 107.315 134.445 107.271 134.239 107.154ZM140.289 96.66L138.947 96.176H132.347C131.981 96.176 131.709 96.0953 131.533 95.934C131.357 95.7727 131.255 95.5087 131.225 95.142L131.049 91.71C131.049 91.5193 131.071 91.358 131.115 91.226C131.174 91.0793 131.284 90.9693 131.445 90.896C131.607 90.808 131.827 90.764 132.105 90.764C132.369 90.764 132.56 90.808 132.677 90.896C132.795 90.984 132.875 91.1087 132.919 91.27C132.978 91.4167 133.007 91.5927 133.007 91.798L133.139 94.196H138.727C139.197 94.196 139.571 94.2987 139.849 94.504C140.128 94.7093 140.304 95.0027 140.377 95.384C140.465 95.7507 140.436 96.176 140.289 96.66ZM158.381 107.22C158.117 107.22 157.912 107.183 157.765 107.11C157.633 107.037 157.538 106.934 157.479 106.802C157.421 106.655 157.391 106.509 157.391 106.362V100.972C157.391 99.9013 157.237 99.014 156.929 98.31C156.636 97.606 156.189 97.078 155.587 96.726C154.986 96.3593 154.231 96.176 153.321 96.176H149.185C148.995 96.176 148.826 96.154 148.679 96.11C148.533 96.0513 148.415 95.9487 148.327 95.802C148.239 95.6553 148.195 95.45 148.195 95.186C148.195 94.9073 148.239 94.702 148.327 94.57C148.415 94.438 148.533 94.3427 148.679 94.284C148.826 94.2253 148.987 94.196 149.163 94.196H153.255C154.605 94.196 155.727 94.4527 156.621 94.966C157.531 95.4647 158.213 96.2127 158.667 97.21C159.122 98.1927 159.349 99.432 159.349 100.928V106.208C159.349 106.399 159.32 106.575 159.261 106.736C159.217 106.883 159.122 107 158.975 107.088C158.843 107.176 158.645 107.22 158.381 107.22ZM149.361 107.22C149.097 107.22 148.899 107.176 148.767 107.088C148.635 107 148.54 106.883 148.481 106.736C148.437 106.575 148.415 106.406 148.415 106.23V100.796C148.415 100.605 148.437 100.437 148.481 100.29C148.54 100.143 148.635 100.033 148.767 99.96C148.914 99.872 149.119 99.828 149.383 99.828C149.662 99.828 149.867 99.872 149.999 99.96C150.146 100.048 150.241 100.165 150.285 100.312C150.329 100.459 150.351 100.627 150.351 100.818V106.252C150.351 106.428 150.322 106.589 150.263 106.736C150.219 106.883 150.124 107 149.977 107.088C149.845 107.176 149.64 107.22 149.361 107.22ZM169.12 107.22C168.856 107.22 168.65 107.183 168.504 107.11C168.372 107.037 168.276 106.934 168.218 106.802C168.159 106.655 168.13 106.509 168.13 106.362V100.972C168.13 100.18 168.042 99.4833 167.866 98.882C167.704 98.2807 167.448 97.782 167.096 97.386C166.758 96.9753 166.333 96.6747 165.82 96.484C165.321 96.2787 164.734 96.176 164.06 96.176H161.398C161.192 96.176 161.016 96.154 160.87 96.11C160.723 96.0513 160.606 95.9487 160.518 95.802C160.43 95.6553 160.386 95.45 160.386 95.186C160.386 94.9073 160.43 94.702 160.518 94.57C160.606 94.438 160.723 94.3427 160.87 94.284C161.016 94.2253 161.185 94.196 161.376 94.196H163.994C165.006 94.196 165.886 94.3427 166.634 94.636C167.396 94.9147 168.034 95.34 168.548 95.912C169.061 96.4693 169.442 97.166 169.692 98.002C169.956 98.838 170.088 99.8133 170.088 100.928V106.208C170.088 106.399 170.058 106.575 170 106.736C169.956 106.883 169.86 107 169.714 107.088C169.582 107.176 169.384 107.22 169.12 107.22ZM176.972 107.22C176.737 107.22 176.554 107.191 176.422 107.132C176.305 107.073 176.217 106.993 176.158 106.89C176.114 106.773 176.077 106.648 176.048 106.516C176.019 106.369 175.997 106.208 175.982 106.032L175.3 100.928C175.197 100.151 175.131 99.454 175.102 98.838C175.087 98.2073 175.131 97.65 175.234 97.166C175.351 96.682 175.535 96.2567 175.784 95.89L177.368 95.978C177.265 96.154 177.177 96.3667 177.104 96.616C177.045 96.8653 177.001 97.144 176.972 97.452C176.957 97.76 176.957 98.0973 176.972 98.464C176.987 98.816 177.016 99.2047 177.06 99.63C177.104 100.041 177.155 100.488 177.214 100.972L177.874 106.01C177.933 106.435 177.896 106.743 177.764 106.934C177.647 107.125 177.383 107.22 176.972 107.22ZM173.738 96.176C173.547 96.176 173.371 96.154 173.21 96.11C173.063 96.0513 172.946 95.9487 172.858 95.802C172.77 95.6553 172.726 95.45 172.726 95.186C172.726 94.9073 172.77 94.702 172.858 94.57C172.946 94.438 173.063 94.3427 173.21 94.284C173.371 94.2253 173.54 94.196 173.716 94.196H179.128C179.319 94.196 179.48 94.2253 179.612 94.284C179.759 94.3427 179.876 94.438 179.964 94.57C180.052 94.702 180.096 94.9073 180.096 95.186C180.096 95.45 180.052 95.6553 179.964 95.802C179.876 95.9487 179.759 96.0513 179.612 96.11C179.465 96.154 179.297 96.176 179.106 96.176H173.738ZM183.998 107.22C183.734 107.22 183.529 107.176 183.382 107.088C183.25 107 183.155 106.883 183.096 106.736C183.038 106.575 183.008 106.406 183.008 106.23V95.186C183.008 95.01 183.038 94.8487 183.096 94.702C183.155 94.5553 183.25 94.438 183.382 94.35C183.529 94.262 183.734 94.218 183.998 94.218L188.31 94.196C189.308 94.196 190.188 94.3353 190.95 94.614C191.713 94.8927 192.344 95.318 192.842 95.89C193.356 96.4473 193.737 97.144 193.986 97.98C194.25 98.816 194.382 99.7987 194.382 100.928V106.208C194.382 106.399 194.36 106.575 194.316 106.736C194.272 106.883 194.177 107 194.03 107.088C193.898 107.176 193.693 107.22 193.414 107.22C193.15 107.22 192.945 107.183 192.798 107.11C192.666 107.037 192.571 106.934 192.512 106.802C192.468 106.655 192.446 106.509 192.446 106.362V100.972C192.446 100.18 192.358 99.4833 192.182 98.882C192.006 98.2807 191.75 97.782 191.412 97.386C191.075 96.9753 190.65 96.6747 190.136 96.484C189.638 96.2787 189.051 96.176 188.376 96.176H184.988V106.208C184.988 106.399 184.959 106.575 184.9 106.736C184.856 106.883 184.761 107 184.614 107.088C184.482 107.176 184.277 107.22 183.998 107.22ZM199.659 107.154C199.307 106.978 199.08 106.787 198.977 106.582C198.875 106.377 198.911 106.142 199.087 105.878C199.762 104.837 200.363 103.869 200.891 102.974C201.434 102.065 201.911 101.207 202.321 100.4C202.747 99.5787 203.121 98.7647 203.443 97.958C203.766 97.1513 204.045 96.3227 204.279 95.472L205.753 96.594C205.416 97.694 205.02 98.75 204.565 99.762C204.111 100.774 203.59 101.83 203.003 102.93C202.417 104.03 201.727 105.262 200.935 106.626C200.847 106.802 200.737 106.949 200.605 107.066C200.488 107.183 200.349 107.257 200.187 107.286C200.041 107.315 199.865 107.271 199.659 107.154ZM205.709 96.66L204.367 96.176H197.767C197.401 96.176 197.129 96.0953 196.953 95.934C196.777 95.7727 196.675 95.5087 196.645 95.142L196.469 91.71C196.469 91.5193 196.491 91.358 196.535 91.226C196.594 91.0793 196.704 90.9693 196.865 90.896C197.027 90.808 197.247 90.764 197.525 90.764C197.789 90.764 197.98 90.808 198.097 90.896C198.215 90.984 198.295 91.1087 198.339 91.27C198.398 91.4167 198.427 91.5927 198.427 91.798L198.559 94.196H204.147C204.617 94.196 204.991 94.2987 205.269 94.504C205.548 94.7093 205.724 95.0027 205.797 95.384C205.885 95.7507 205.856 96.176 205.709 96.66ZM103.82 133.978L95.8123 128.698C95.6803 128.61 95.5777 128.5 95.5043 128.368C95.431 128.221 95.3943 128.067 95.3943 127.906C95.3943 127.701 95.431 127.539 95.5043 127.422C95.5923 127.29 95.695 127.195 95.8123 127.136L103.842 121.834C104.004 121.731 104.15 121.658 104.282 121.614C104.414 121.555 104.554 121.555 104.7 121.614C104.847 121.658 105.001 121.805 105.162 122.054C105.324 122.274 105.412 122.465 105.426 122.626C105.456 122.773 105.426 122.912 105.338 123.044C105.265 123.161 105.14 123.271 104.964 123.374L97.9463 127.906L104.986 132.46C105.148 132.563 105.265 132.673 105.338 132.79C105.426 132.907 105.456 133.047 105.426 133.208C105.412 133.369 105.324 133.56 105.162 133.78C105.001 134 104.847 134.139 104.7 134.198C104.568 134.257 104.429 134.257 104.282 134.198C104.15 134.154 103.996 134.081 103.82 133.978ZM113.844 134.22C113.653 134.22 113.484 134.191 113.338 134.132C113.191 134.073 113.074 133.978 112.986 133.846C112.898 133.699 112.854 133.494 112.854 133.23C112.854 132.951 112.898 132.746 112.986 132.614C113.074 132.467 113.191 132.372 113.338 132.328C113.484 132.269 113.646 132.24 113.822 132.24H115.714V122.604L116.528 123.22C116.102 123.235 115.736 123.242 115.428 123.242C115.134 123.242 114.892 123.213 114.702 123.154C114.526 123.095 114.394 123.007 114.306 122.89C114.232 122.758 114.196 122.582 114.196 122.362C114.196 121.951 114.291 121.665 114.482 121.504C114.672 121.343 115.054 121.255 115.626 121.24L119.454 121.196C120.832 121.181 121.984 121.423 122.908 121.922C123.846 122.421 124.55 123.169 125.02 124.166C125.504 125.163 125.746 126.417 125.746 127.928V133.208C125.746 133.399 125.716 133.575 125.658 133.736C125.614 133.883 125.518 134 125.372 134.088C125.24 134.176 125.042 134.22 124.778 134.22C124.514 134.22 124.308 134.183 124.162 134.11C124.03 134.037 123.934 133.934 123.876 133.802C123.817 133.655 123.788 133.509 123.788 133.362V127.972C123.788 126.901 123.634 126.014 123.326 125.31C123.032 124.606 122.585 124.078 121.984 123.726C121.382 123.359 120.627 123.176 119.718 123.176H117.694V132.79C117.694 133.259 117.606 133.619 117.43 133.868C117.268 134.103 117.019 134.22 116.682 134.22H113.844ZM129.969 134.22C129.705 134.22 129.507 134.176 129.375 134.088C129.243 134 129.147 133.883 129.089 133.736C129.045 133.575 129.023 133.406 129.023 133.23V122.164C129.023 121.988 129.045 121.827 129.089 121.68C129.147 121.533 129.243 121.416 129.375 121.328C129.521 121.24 129.727 121.196 129.991 121.196C130.269 121.196 130.475 121.247 130.607 121.35C130.753 121.438 130.849 121.555 130.893 121.702C130.937 121.834 130.959 121.995 130.959 122.186V133.252C130.959 133.428 130.929 133.589 130.871 133.736C130.827 133.883 130.731 134 130.585 134.088C130.453 134.176 130.247 134.22 129.969 134.22ZM134.744 123.176C134.554 123.176 134.378 123.154 134.216 123.11C134.07 123.051 133.952 122.949 133.864 122.802C133.776 122.655 133.732 122.45 133.732 122.186C133.732 121.907 133.776 121.702 133.864 121.57C133.952 121.438 134.07 121.343 134.216 121.284C134.378 121.225 134.546 121.196 134.722 121.196H143.918C144.109 121.196 144.27 121.225 144.402 121.284C144.549 121.343 144.666 121.438 144.754 121.57C144.842 121.702 144.886 121.907 144.886 122.186C144.886 122.45 144.842 122.655 144.754 122.802C144.666 122.949 144.549 123.051 144.402 123.11C144.256 123.154 144.087 123.176 143.896 123.176H134.744ZM141.41 134.22C141.146 134.22 140.948 134.176 140.816 134.088C140.684 134 140.589 133.883 140.53 133.736C140.472 133.575 140.442 133.399 140.442 133.208V122.89L142.4 122.978V133.362C142.4 133.509 142.371 133.655 142.312 133.802C142.268 133.934 142.173 134.037 142.026 134.11C141.894 134.183 141.689 134.22 141.41 134.22ZM159.216 127.136V133.23C159.216 133.509 159.194 133.721 159.15 133.868C159.106 134 159.018 134.088 158.886 134.132C158.754 134.191 158.549 134.22 158.27 134.22H152.924C152.748 134.22 152.58 134.191 152.418 134.132C152.272 134.073 152.154 133.978 152.066 133.846C151.978 133.699 151.934 133.494 151.934 133.23C151.934 132.951 151.978 132.746 152.066 132.614C152.154 132.467 152.272 132.372 152.418 132.328C152.58 132.269 152.756 132.24 152.946 132.24H157.28V127.202C157.28 126.249 157.156 125.464 156.906 124.848C156.672 124.232 156.32 123.777 155.85 123.484C155.396 123.191 154.838 123.044 154.178 123.044C153.694 123.044 153.254 123.154 152.858 123.374C152.462 123.579 152.118 123.873 151.824 124.254C151.531 124.635 151.274 125.09 151.054 125.618C150.849 126.131 150.673 126.703 150.526 127.334L149.338 133.164C149.309 133.355 149.265 133.531 149.206 133.692C149.148 133.853 149.045 133.978 148.898 134.066C148.766 134.169 148.576 134.22 148.326 134.22C147.945 134.22 147.674 134.139 147.512 133.978C147.351 133.802 147.3 133.553 147.358 133.23L148.92 125.486L149.624 125.948C149.771 125.405 149.947 124.892 150.152 124.408C150.358 123.909 150.585 123.462 150.834 123.066C151.098 122.655 151.406 122.303 151.758 122.01C152.11 121.717 152.506 121.489 152.946 121.328C153.401 121.167 153.929 121.086 154.53 121.086C155.528 121.086 156.371 121.313 157.06 121.768C157.764 122.208 158.3 122.883 158.666 123.792C159.033 124.687 159.216 125.801 159.216 127.136ZM148.876 127.752L147.468 122.494C147.41 122.289 147.38 122.105 147.38 121.944C147.38 121.783 147.432 121.643 147.534 121.526C147.652 121.394 147.85 121.291 148.128 121.218C148.466 121.145 148.715 121.145 148.876 121.218C149.038 121.291 149.148 121.409 149.206 121.57C149.265 121.717 149.309 121.856 149.338 121.988L150.372 126.014L148.876 127.752ZM163.592 134.22C163.328 134.22 163.13 134.176 162.998 134.088C162.866 134 162.77 133.883 162.712 133.736C162.668 133.575 162.646 133.406 162.646 133.23V122.164C162.646 121.988 162.668 121.827 162.712 121.68C162.77 121.533 162.866 121.416 162.998 121.328C163.144 121.24 163.35 121.196 163.614 121.196C163.892 121.196 164.098 121.247 164.23 121.35C164.376 121.438 164.472 121.555 164.516 121.702C164.56 121.834 164.582 121.995 164.582 122.186V133.252C164.582 133.428 164.552 133.589 164.494 133.736C164.45 133.883 164.354 134 164.208 134.088C164.076 134.176 163.87 134.22 163.592 134.22ZM170.655 134.154C170.303 133.978 170.076 133.787 169.973 133.582C169.871 133.377 169.907 133.142 170.083 132.878C170.758 131.837 171.359 130.869 171.887 129.974C172.43 129.065 172.907 128.207 173.317 127.4C173.743 126.579 174.117 125.765 174.439 124.958C174.762 124.151 175.041 123.323 175.275 122.472L176.749 123.594C176.412 124.694 176.016 125.75 175.561 126.762C175.107 127.774 174.586 128.83 173.999 129.93C173.413 131.03 172.723 132.262 171.931 133.626C171.843 133.802 171.733 133.949 171.601 134.066C171.484 134.183 171.345 134.257 171.183 134.286C171.037 134.315 170.861 134.271 170.655 134.154ZM176.705 123.66L175.363 123.176H168.763C168.397 123.176 168.125 123.095 167.949 122.934C167.773 122.773 167.671 122.509 167.641 122.142L167.465 118.71C167.465 118.519 167.487 118.358 167.531 118.226C167.59 118.079 167.7 117.969 167.861 117.896C168.023 117.808 168.243 117.764 168.521 117.764C168.785 117.764 168.976 117.808 169.093 117.896C169.211 117.984 169.291 118.109 169.335 118.27C169.394 118.417 169.423 118.593 169.423 118.798L169.555 121.196H175.143C175.613 121.196 175.987 121.299 176.265 121.504C176.544 121.709 176.72 122.003 176.793 122.384C176.881 122.751 176.852 123.176 176.705 123.66ZM189.211 134.22C188.947 134.22 188.742 134.183 188.595 134.11C188.463 134.037 188.368 133.934 188.309 133.802C188.251 133.655 188.221 133.509 188.221 133.362V127.972C188.221 126.901 188.067 126.014 187.759 125.31C187.466 124.606 187.019 124.078 186.417 123.726C185.816 123.359 185.061 123.176 184.151 123.176H180.015C179.825 123.176 179.656 123.154 179.509 123.11C179.363 123.051 179.245 122.949 179.157 122.802C179.069 122.655 179.025 122.45 179.025 122.186C179.025 121.907 179.069 121.702 179.157 121.57C179.245 121.438 179.363 121.343 179.509 121.284C179.656 121.225 179.817 121.196 179.993 121.196H184.085C185.435 121.196 186.557 121.453 187.451 121.966C188.361 122.465 189.043 123.213 189.497 124.21C189.952 125.193 190.179 126.432 190.179 127.928V133.208C190.179 133.399 190.15 133.575 190.091 133.736C190.047 133.883 189.952 134 189.805 134.088C189.673 134.176 189.475 134.22 189.211 134.22ZM180.191 134.22C179.927 134.22 179.729 134.176 179.597 134.088C179.465 134 179.37 133.883 179.311 133.736C179.267 133.575 179.245 133.406 179.245 133.23V127.796C179.245 127.605 179.267 127.437 179.311 127.29C179.37 127.143 179.465 127.033 179.597 126.96C179.744 126.872 179.949 126.828 180.213 126.828C180.492 126.828 180.697 126.872 180.829 126.96C180.976 127.048 181.071 127.165 181.115 127.312C181.159 127.459 181.181 127.627 181.181 127.818V133.252C181.181 133.428 181.152 133.589 181.093 133.736C181.049 133.883 180.954 134 180.807 134.088C180.675 134.176 180.47 134.22 180.191 134.22Z" fill="#821025"/>
<defs>
<filter id="filter0_dd_2168_3558" x="-18" y="0" width="322" height="214.784" filterUnits="userSpaceOnUse" color-interpolation-filters="sRGB">
<feFlood flood-opacity="0" result="BackgroundImageFix"/>
<feColorMatrix in="SourceAlpha" type="matrix" values="0 0 0 0 0 0 0 0 0 0 0 0 0 0 0 0 0 0 127 0" result="hardAlpha"/>
<feOffset/>
<feGaussianBlur stdDeviation="15"/>
<feComposite in2="hardAlpha" operator="out"/>
<feColorMatrix type="matrix" values="0 0 0 0 0.658654 0 0 0 0 0.101331 0 0 0 0 0.202226 0 0 0 0.4 0"/>
<feBlend mode="normal" in2="BackgroundImageFix" result="effect1_dropShadow_2168_3558"/>
<feColorMatrix in="SourceAlpha" type="matrix" values="0 0 0 0 0 0 0 0 0 0 0 0 0 0 0 0 0 0 127 0" result="hardAlpha"/>
<feOffset dy="4"/>
<feGaussianBlur stdDeviation="5"/>
<feComposite in2="hardAlpha" operator="out"/>
<feColorMatrix type="matrix" values="0 0 0 0 0.283654 0 0 0 0 0.283654 0 0 0 0 0.283654 0 0 0 0.25 0"/>
<feBlend mode="normal" in2="effect1_dropShadow_2168_3558" result="effect2_dropShadow_2168_3558"/>
<feBlend mode="normal" in="SourceGraphic" in2="effect2_dropShadow_2168_3558" result="shape"/>
</filter>
</defs>
</svg>
