<svg width="347" height="205" viewBox="0 0 347 205" fill="none" xmlns="http://www.w3.org/2000/svg">
<ellipse cx="99.5" cy="96" rx="49.5" ry="49" fill="#D9D9D9"/>
<ellipse cx="173.5" cy="58" rx="49.5" ry="49" fill="#D9D9D9"/>
<ellipse cx="173.5" cy="127" rx="49.5" ry="49" fill="#D9D9D9"/>
<ellipse cx="99.5" cy="145" rx="49.5" ry="49" fill="#D9D9D9"/>
<ellipse cx="49.5" cy="127" rx="49.5" ry="49" fill="#D9D9D9"/>
<ellipse cx="247.5" cy="148" rx="49.5" ry="49" fill="#D9D9D9"/>
<ellipse cx="173.5" cy="156" rx="49.5" ry="49" fill="#D9D9D9"/>
<ellipse cx="247.5" cy="96" rx="49.5" ry="49" fill="#D9D9D9"/>
<ellipse cx="297.5" cy="127" rx="49.5" ry="49" fill="#D9D9D9"/>
<ellipse cx="100.64" cy="86.2478" rx="49.072" ry="48.5764" fill="white"/>
<ellipse cx="174" cy="48.5764" rx="49.072" ry="48.5764" fill="white"/>
<ellipse cx="174" cy="116.98" rx="49.072" ry="48.5764" fill="white"/>
<ellipse cx="100.64" cy="130.859" rx="49.072" ry="48.5764" fill="white"/>
<ellipse cx="51.072" cy="116.98" rx="49.072" ry="48.5764" fill="white"/>
<ellipse cx="247.36" cy="134.824" rx="49.072" ry="48.5764" fill="white"/>
<ellipse cx="174" cy="142.755" rx="49.072" ry="48.5764" fill="white"/>
<ellipse cx="247.36" cy="86.2478" rx="49.072" ry="48.5764" fill="white"/>
<ellipse cx="296.928" cy="116.98" rx="49.072" ry="48.5764" fill="white"/>
</svg>
