<svg width="262" height="150" viewBox="0 0 262 150" fill="none" xmlns="http://www.w3.org/2000/svg">
<ellipse cx="75.1268" cy="67.1523" rx="37.3746" ry="36.9971" fill="#D9D9D9"/>
<ellipse cx="131" cy="38.4606" rx="37.3746" ry="36.9971" fill="#D9D9D9"/>
<ellipse cx="131" cy="90.5586" rx="37.3746" ry="36.9971" fill="#D9D9D9"/>
<ellipse cx="75.1268" cy="104.149" rx="37.3746" ry="36.9971" fill="#D9D9D9"/>
<ellipse cx="37.3746" cy="90.5586" rx="37.3746" ry="36.9971" fill="#D9D9D9"/>
<ellipse cx="186.873" cy="106.415" rx="37.3746" ry="36.9971" fill="#D9D9D9"/>
<ellipse cx="131" cy="112.455" rx="37.3746" ry="36.9971" fill="#D9D9D9"/>
<ellipse cx="186.873" cy="67.1523" rx="37.3746" ry="36.9971" fill="#D9D9D9"/>
<ellipse cx="224.625" cy="90.5586" rx="37.3746" ry="36.9971" fill="#D9D9D9"/>
<ellipse cx="75.9874" cy="65.1208" rx="37.0515" ry="36.6773" fill="white"/>
<ellipse cx="131.378" cy="36.6773" rx="37.0515" ry="36.6773" fill="white"/>
<ellipse cx="131.378" cy="88.3248" rx="37.0515" ry="36.6773" fill="white"/>
<ellipse cx="75.9874" cy="98.804" rx="37.0515" ry="36.6773" fill="white"/>
<ellipse cx="38.5616" cy="88.3248" rx="37.0515" ry="36.6773" fill="white"/>
<ellipse cx="186.768" cy="101.798" rx="37.0515" ry="36.6773" fill="white"/>
<ellipse cx="131.378" cy="107.786" rx="37.0515" ry="36.6773" fill="white"/>
<ellipse cx="186.768" cy="65.1208" rx="37.0515" ry="36.6773" fill="white"/>
<ellipse cx="224.193" cy="88.3248" rx="37.0515" ry="36.6773" fill="white"/>
</svg>
