<svg width="169" height="232" viewBox="0 0 169 232" fill="none" xmlns="http://www.w3.org/2000/svg">
<mask id="mask0_130_11443" style="mask-type:luminance" maskUnits="userSpaceOnUse" x="0" y="0" width="169" height="232">
<path d="M168.836 0H0V232H168.836V0Z" fill="white"/>
</mask>
<g mask="url(#mask0_130_11443)">
<path d="M86.328 147.188C127.369 147.188 160.639 116.138 160.639 77.8367C160.639 39.5353 127.369 8.48592 86.328 8.48592C45.2873 8.48592 12.0173 39.5353 12.0173 77.8367C12.0173 116.138 45.2873 147.188 86.328 147.188Z" fill="#563822"/>
<path d="M120.826 181.249C122.312 177.32 119.429 172.699 114.387 170.929C109.346 169.158 104.055 170.908 102.569 174.837C101.084 178.766 103.967 183.387 109.008 185.157C114.05 186.928 119.341 185.178 120.826 181.249Z" fill="#006480"/>
<path d="M47.6369 148.06C46.1073 148.709 44.5288 149.134 42.7301 149.57C48.065 161.577 39.2305 178.042 27.9242 182.748C25.4771 178.738 25.0609 179.481 20.974 178.513C18.3433 177.888 15.9695 178.384 13.6691 178.844C8.89691 172.911 9.25177 162.744 15.9817 157.449C16.1897 149.169 19.469 141.798 27.8264 138.684C24.082 133.282 22.1488 127.243 22.4056 121.146C22.4056 120.627 23.8251 119.86 24.1922 120.674C29.1846 131.607 36.8199 141.857 47.6245 148.049L47.6369 148.06Z" fill="#563822"/>
<path d="M42.5597 149.169C37.4081 149.57 34.7528 149.028 30.7027 152.637C30.6171 152.118 30.6049 151.316 30.8619 150.891C32.3301 150.065 32.1466 148.108 31.9142 146.916C33.8841 145.666 29.8706 142.635 30.2378 141.161C32.1589 143.413 33.7374 145.395 33.1378 148.768C34.912 149.193 33.9821 145.006 37.1146 145.631C39.3783 146.079 41.1769 147.199 42.5597 149.169Z" fill="#522A21"/>
<path d="M27.9243 182.748C27.9733 183.325 27.2882 183.526 27.0434 183.939C21.9532 181.438 18.8083 181.934 13.7426 180.153C14.0485 179.917 13.9261 179.162 13.6814 178.855C15.9818 178.395 18.3556 177.9 20.9865 178.525C25.0734 179.492 25.4772 178.749 27.9367 182.759L27.9243 182.748Z" fill="#8F6062"/>
<path d="M27.0433 183.927C33.1124 192.466 29.882 204.875 22.5037 212.128C20.2521 214.345 17.7071 216.103 14.4767 216.444C16.9362 213.695 18.6247 211.22 19.2489 208.188C19.518 207.22 18.9919 207.163 18.9919 208.188C15.4801 213.165 9.72904 216.492 3.25607 215.501C2.85228 215.441 2.47295 215.395 2.54638 215.029C2.57085 214.923 2.70544 214.886 2.84004 214.769C3.73328 214.769 4.41852 214.25 5.20163 213.967C7.35522 213.177 9.08052 211.538 10.1573 209.591C10.3776 209.745 10.4877 209.545 10.5244 209.414C10.5611 209.285 10.6223 209.061 10.3653 208.838C10.3653 208.838 9.4109 209.508 9.79021 209.626C8.3953 210.912 6.90247 212.103 5.21387 213.024C4.50417 213.414 3.39068 213.626 2.75439 214.061C1.46958 213.932 0.062418 214.545 -1.54053 213.543C11.124 208.529 2.43625 197.891 6.65774 187.631C8.00372 184.363 10.4999 181.427 13.7425 180.141C18.8083 181.922 21.9653 181.438 27.0433 183.927Z" fill="#563822"/>
<path d="M16.6436 194.129C16.044 196.347 15.7381 198.422 14.49 200.333C15.2853 196.323 16.5579 192.513 17.598 188.456C18.1731 186.203 18.5158 183.844 20.3634 181.863C20.0942 183.703 19.0785 185.071 18.6014 186.864L16.6436 194.117V194.129Z" fill="#4E271F"/>
<path d="M14.4894 200.97C14.367 201.642 14.3915 202.386 13.7062 202.444C13.0333 203.635 15.2847 197.16 14.4894 200.97Z" fill="#4E271D"/>
<path d="M160.112 81.3987L160.063 89.9967C159.696 90.5039 159.672 91.1407 159.672 91.7423C158.668 91.188 156.025 91.2942 155.034 91.8366L151.29 99.3143L150.397 91.7423C145.6 88.6875 142.088 84.5123 138.834 80.2665C137.744 78.8393 136.974 77.023 136.203 75.4543C141.868 75.82 155.634 78.2497 160.112 81.3987Z" fill="#563822"/>
<path d="M155.327 89.1712C153.957 88.0507 153.015 86.2579 152.746 84.2766C153.994 85.68 154.716 87.1426 155.327 89.1712Z" fill="#563822"/>
<path d="M35.2417 75.7492C32.0235 81.8468 26.9823 87.2014 20.962 91.3531L19.6895 98.9604L16.5937 91.8248C15.6393 91.3294 13.4734 91.2704 12.4701 91.4829C12.3844 91.2234 12.4456 90.9403 12.4334 90.7043L12.0173 81.0213C15.7616 79.3229 19.6527 78.3556 23.9476 77.4004C27.7654 76.5511 31.6075 76.2681 35.2417 75.7492Z" fill="#563822"/>
<path d="M19.3591 83.4627C18.9186 83.8164 19.0288 83.215 18.992 83.0263C18.8818 82.5899 19.2368 82.177 19.4203 81.5756C19.8607 81.2217 19.7507 81.8233 19.7873 82.012C19.8853 82.4247 19.5303 82.8376 19.3469 83.4509L19.3591 83.4627Z" fill="#563822"/>
<path d="M96.1286 162.756C96.3366 162.685 96.4712 162.803 96.459 162.945C96.459 163.133 96.459 163.322 96.3856 163.452C95.9329 164.419 97.0341 165.811 96.6058 166.754L93.1062 174.385C92.5801 174.208 92.3965 174.527 92.2253 174.562C88.9093 175.305 82.3506 175.742 78.7043 174.645C77.6886 172.015 75.584 169.656 74.8253 166.707C74.5805 165.752 75.5472 164.49 74.9233 163.535C75.0579 163.582 75.1925 163.417 75.2903 163.417C82.0815 163.735 88.8481 164.077 95.6025 162.237C95.7003 162.862 95.7861 163.44 96.1286 162.768V162.756Z" fill="#FCC9A6"/>
<path d="M96.1296 156.765C96.1296 158.758 96.3498 160.763 96.1296 162.756C95.787 163.428 95.7012 162.85 95.6034 162.225C88.849 164.077 82.0824 163.735 75.2912 163.405C74.9243 161.317 75.2668 159.194 75.328 157.083C81.8866 158.333 89.473 157.13 96.1174 156.753L96.1296 156.765Z" fill="#F9AD97"/>
<path d="M50.0727 221.752C48.4574 235.787 45.4718 249.621 42.8533 263.752C44.077 264.636 45.4474 265.132 46.781 265.332C46.6833 266.192 46.83 267.042 46.8422 267.89C46.8422 268.457 46.5977 269.095 46.6343 269.66C45.2148 269.625 46.6343 270.662 43.7466 271.547C42.3272 273.033 44.1625 277.574 41.1891 278.719C40.4428 279.001 39.2435 278.742 38.2646 278.187C29.0509 272.927 33.3702 260.024 33.3458 255.59C33.2724 242.273 33.4436 229.112 36.3681 216.303C40.8343 218.354 45.3372 220.43 50.0727 221.752Z" fill="#FCC9A6"/>
<path d="M50.6832 216.999C50.6342 218.614 50.2549 220.16 50.0713 221.764C45.3359 220.455 40.833 218.366 36.3667 216.315C36.6483 215.075 36.8194 213.803 37.1744 212.575L50.6708 216.999H50.6832Z" fill="#F9AD97"/>
<path d="M135.945 216.962C137.781 225.69 138.283 234.596 138.417 243.713C138.478 248.017 138.013 252.098 138.393 256.333C138.772 260.567 139.849 264.424 139.274 268.611C138.319 275.581 132.727 280.217 129.962 278.494C127.429 276.913 129.411 272.491 127.796 271.217C129.093 270.816 126.193 265.556 126.928 264.872C127.466 264.683 128.873 264.01 128.873 263.434L121.984 221.787L135.958 216.962H135.945Z" fill="#FCC9A6"/>
<path d="M135.064 212.458C135.566 213.921 135.639 215.465 135.945 216.951L121.971 221.775C121.678 220.029 121.555 218.296 121.494 216.586C126.205 215.783 130.451 213.495 135.064 212.458Z" fill="#F9AD97"/>
<path d="M122.339 73.9564C123.893 75.466 125.435 77.4121 127.356 78.4736C128.237 80.7499 132.409 82.4719 130.635 84.4652C130.158 84.9959 129.362 85.1138 128.53 84.7129C122.045 81.6344 114.777 81.4812 107.937 83.4862C106.774 83.8283 105.795 82.4247 105.759 81.6109C105.538 77.2116 117.701 77.4828 121.213 78.0019C118.729 76.4213 116.098 75.2891 114.251 73.2133C117.041 73.402 119.635 72.7887 122.339 73.9564Z" fill="#563822"/>
<path d="M136.203 75.4543C136.974 77.0229 137.745 78.8393 138.834 80.2664C138.295 80.3254 138.748 80.4904 138.748 81.0685L127.356 78.4854C125.435 77.4121 123.893 75.4778 122.339 73.9681C122.596 73.7442 122.914 73.5907 123.441 73.6497L134.71 74.9236L136.203 75.466V75.4543Z" fill="#FCC9A6"/>
<path d="M114.251 73.2133C116.099 75.2891 118.729 76.4213 121.213 78.0019C117.702 77.4829 105.539 77.1999 105.759 81.6109C105.796 82.4247 106.787 83.8284 107.937 83.4862C114.789 81.4812 122.045 81.6344 128.531 84.7129C129.363 85.1021 130.17 84.9959 130.635 84.4652C132.409 82.4719 128.237 80.7499 127.356 78.4736L138.748 81.0565C138.748 80.4787 138.295 80.3135 138.834 80.2545C142.076 84.5005 145.588 88.664 150.397 91.7305L151.29 99.3026L155.034 91.8248C156.013 91.2941 158.668 91.1762 159.672 91.7305C162.462 93.2755 164.909 95.3395 166.169 98.5005C169.155 106.025 166.035 114.505 158.913 118.539C155.316 120.579 151.278 121.205 147.215 120.367C144.744 125.132 142.835 130.392 139.494 134.461C134.771 140.229 128.739 144.569 122.51 148.697C121.128 149.204 119.769 149.794 118.497 150.537C118.02 150.808 117.445 151.009 116.931 151.186C110.237 153.462 103.336 156.34 96.1291 156.753C89.4847 157.13 81.9106 158.322 75.3397 157.083C65.9056 155.29 56.031 152.861 47.6369 148.049C36.82 141.857 29.1969 131.607 24.2045 120.674C23.8251 119.848 22.4303 120.627 22.4181 121.146C17.2788 120.756 12.3353 119.648 8.79908 115.909C5.27505 112.182 3.6354 107.358 4.24721 102.204C4.82232 97.2503 8.0649 93.4289 12.4822 91.4829C13.4856 91.2704 15.6514 91.3412 16.6058 91.8248L19.7016 98.9604L20.974 91.3531C26.9943 87.2014 32.0358 81.8468 35.2538 75.7492C61.2192 71.9986 88.0654 71.4325 114.263 73.2133H114.251Z" fill="#FCC9A6"/>
<path d="M53.0585 123.787C48.3231 127.373 41.2383 127.208 36.8578 123.387C35.267 121.995 34.5451 120.178 34.6431 118.386C34.7408 116.746 35.6585 115.012 37.2859 113.798C41.9724 110.295 49.0084 110.401 53.4379 114.187C56.5459 116.841 56.4601 121.216 53.0585 123.799V123.787Z" fill="#F9AD97"/>
<path d="M133.927 123.422C129.607 127.113 122.987 127.267 118.436 124.177C116.649 122.962 115.621 121.169 115.462 119.435C115.266 117.336 116.135 115.378 117.922 113.951C122.302 110.46 128.971 110.295 133.474 113.597C135.101 114.789 136.117 116.416 136.276 118.02C136.472 119.978 135.738 121.865 133.927 123.41V123.422Z" fill="#F9AD97"/>
<path d="M21.856 113.444C15.6767 114.293 10.1826 109.245 9.93788 103.383C9.81551 100.411 12.1894 97.9579 15.126 98.0404C17.0716 98.0876 18.6377 99.0076 20.0328 100.057C20.1062 104.445 20.8649 108.514 21.856 113.456V113.444Z" fill="#F9AD97"/>
<path d="M149.577 113.456C150.312 108.974 150.972 104.763 151.401 100.47C151.547 99.0312 156.369 96.8374 159.232 98.9722C160.113 99.6328 161.214 101.001 161.238 102.605C161.324 108.549 156.369 113.668 149.577 113.456Z" fill="#F9AD97"/>
<path d="M65.2696 81.8586C64.1439 86.6 56.4106 78.1787 42.4123 84.6892C41.7883 84.9841 40.9928 85.0431 40.4423 84.5005C37.1263 81.2335 51.3814 74.6405 63.6544 79.1694C64.8903 79.6294 65.4654 81.033 65.2696 81.8586Z" fill="#563822"/>
<path d="M96.7775 127.161C91.5526 133.907 78.1173 133.718 74.2996 126.111C79.5611 129.59 85.569 130.723 91.4302 128.564C95.2601 127.149 96.0432 124.495 96.9243 125.828C97.0833 126.076 97.1691 126.654 96.7651 127.172L96.7775 127.161Z" fill="#CC5A4B"/>
<path d="M85.3604 116.782C87.1592 116.015 89.6187 115.272 89.374 113.173C89.0314 110.259 85.1281 110.318 82.5828 110.637C83.8186 109.54 85.4828 109.127 87.355 109.422C88.7011 109.622 90.4141 110.601 90.9158 112.323C91.3195 113.727 90.6098 115.331 89.5086 116.05C88.2971 116.852 86.7555 117.477 85.3726 116.782H85.3604Z" fill="#F8A380"/>
<path d="M49.1916 95.363C47.099 96.9081 45.4472 97.6747 43.5138 97.0851C41.911 96.6015 39.8309 95.139 40.051 92.8863C41.8498 94.2073 43.1591 95.9764 45.435 95.198C44.7131 93.7944 43.5506 92.7566 44.2725 91.3767C45.288 92.8626 47.2582 95.363 49.3874 94.1955C50.9046 93.358 51.9325 91.2704 54.1104 90.7398C57.3164 89.9495 60.2897 91.4709 61.6725 94.337C64.6092 100.376 62.9572 109.917 56.7901 110.908C53.4497 111.439 50.721 109.233 49.4851 106.273C47.9679 102.628 48.2371 98.9839 49.1916 95.3867V95.363Z" fill="#321D1D"/>
<path d="M55.6877 110.967C60.1344 110.967 63.7392 106.389 63.7392 100.741C63.7392 95.0937 60.1344 90.5156 55.6877 90.5156C51.2411 90.5156 47.6365 95.0937 47.6365 100.741C47.6365 106.389 51.2411 110.967 55.6877 110.967Z" fill="#A1BB86" stroke="#321D1D" stroke-width="0.167798" stroke-miterlimit="10"/>
<path d="M51.9066 91.2941C55.4551 89.5956 58.9301 91.9192 59.9214 94.7498C61.3531 98.8307 59.7501 102.711 56.5442 104.079C53.1792 105.518 50.1446 104.103 48.4072 100.954C46.5594 97.5922 48.1012 93.1105 51.9066 91.2822V91.2941Z" fill="#321D1D"/>
<path d="M130.856 92.9807C131.406 94.9858 129.179 96.7194 127.454 97.1558C125.264 97.7102 123.086 96.6841 121.703 94.6436C124.321 94.7144 125.472 93.2755 126.928 91.4946C127.429 92.9688 126.438 93.8888 125.778 95.3632C127.846 96.0001 129.057 94.2545 130.856 92.9807Z" fill="#321D1D"/>
<path d="M115.438 110.991C119.884 110.991 123.489 106.412 123.489 100.765C123.489 95.1174 119.884 90.5391 115.438 90.5391C110.991 90.5391 107.386 95.1174 107.386 100.765C107.386 106.412 110.991 110.991 115.438 110.991Z" fill="#A1BB86" stroke="#321D1D" stroke-width="0.167798" stroke-miterlimit="10"/>
<path d="M112.342 91.1407C115.964 89.3716 119.5 91.7895 120.516 94.7261C121.984 98.9604 120.332 102.982 117.065 104.409C113.627 105.907 110.531 104.433 108.769 101.166C106.872 97.6866 108.451 93.0277 112.33 91.1407H112.342Z" fill="#321D1D"/>
<path d="M92.2268 174.562C92.398 174.692 92.7774 174.562 92.7652 174.786C92.7652 174.916 92.7652 175.117 92.6306 175.388L85.7416 188.609C84.1876 186.439 83.4901 184.198 82.1442 182.087C80.529 179.563 79.6479 177.063 78.718 174.633C82.3644 175.73 88.9108 175.293 92.239 174.55L92.2268 174.562Z" fill="#646649"/>
<path d="M135.346 203.282C135.909 205.075 137.976 208.034 137.903 210.794L135.064 212.458C130.463 213.483 126.218 215.783 121.494 216.586C121.409 214.345 120.589 212.197 120.711 209.934L134.612 205.488C135.346 205.25 135.346 204.366 135.04 204.001C134.807 203.718 134.636 203.423 134.869 203.34C135.04 203.269 135.211 203.306 135.333 203.269L135.346 203.282Z" fill="#8E9063"/>
<path d="M50.6833 216.999L37.1867 212.575L34.5436 210.937C33.9072 209.58 34.9597 208.094 35.3513 206.926C35.6082 207.008 35.8406 206.914 35.9752 206.796C36.0976 206.69 35.8162 205.865 36.1588 205.757C37.7372 205.262 39.1566 206.372 40.4905 206.773L49.8266 209.568C52.4697 210.358 50.8667 211.644 50.6833 217.01V216.999Z" fill="#8E9063"/>
<path d="M122.67 175.742C122.07 176.768 121.972 177.959 120.908 179.233L107.191 173.182C106.09 172.404 106.347 170.422 106.396 169.42C106.041 167.438 120.308 173.996 121.507 174.562C122.241 174.904 122.401 175.317 122.67 175.754V175.742Z" fill="#646649"/>
<path d="M65.2937 169.408C65.4406 170.623 64.9267 171.909 64.5473 173.277C59.7385 175.034 55.211 177.181 50.5614 179.421C50.1208 178.207 50.0352 177.086 49.0439 176.839C49.4111 176.06 49.0439 175.152 50.2554 174.598C51.8338 173.878 65.0123 167.698 65.2937 169.42V169.408Z" fill="#646649"/>
<path d="M124.97 265.284L125.117 268.268C123.208 268.233 121.299 268.623 119.158 269.058C108.059 271.312 97.0589 272.468 86.0586 273.8C86.1076 273.6 85.9852 273.459 85.8506 273.422C85.4591 273.316 85.2265 273.565 85.2143 273.86C72.305 272.68 59.4693 270.911 46.8414 267.879C46.8414 267.03 46.6702 266.18 46.7804 265.321C58.0377 266.982 69.3927 267.973 81.0172 268.28C81.7881 268.305 82.3754 268.374 82.8282 267.95C83.1586 267.632 83.5623 267.088 83.6359 266.475L85.5447 250.718L85.6671 190.331C82.608 188.869 80.0261 187.406 77.175 185.767C76.3797 185.307 76.233 184.529 76.0004 183.337C74.3118 183.667 61.3781 191.192 61.8186 186.84C62.4672 187.572 63.1401 187.737 64.1312 187.312C69.087 185.213 73.5165 182.547 78.5455 179.976C78.1907 181.627 76.9303 182.724 76.4287 184.128C77.3342 185.307 78.5577 185.932 79.8547 186.616L85.6671 189.683L90.3045 187.229C92.0543 186.309 93.6695 185.401 94.832 184.187C93.9387 182.901 93.2168 181.686 92.9476 180.059L105.441 186.427C106.664 187.052 108.023 187.76 109.479 187.076C109.76 185.979 109.271 184.882 109.748 183.892C110.066 184.764 110.066 185.684 109.797 186.569C109.393 187.949 108.475 188.468 107.215 188.149C103.948 187.312 101.023 185.932 97.9154 184.717L95.2725 183.679C96.5206 185.602 87.5392 189.234 86.3522 190.131L86.4868 252.57L87.8328 266.369C87.9552 267.572 88.7383 268.316 89.913 268.28C101.807 267.998 113.407 266.936 124.945 265.273L124.97 265.284Z" fill="#625C48"/>
<path d="M74.9365 163.523C75.5604 164.478 74.5937 165.74 74.8385 166.695C75.5972 169.644 77.7018 172.015 78.7174 174.633C79.6595 177.063 80.5284 179.563 82.1436 182.087C83.4895 184.198 84.187 186.427 85.741 188.609L92.63 175.388C92.7646 175.128 92.7646 174.928 92.7646 174.786C92.7646 174.562 92.3974 174.692 92.2263 174.562C92.3974 174.527 92.581 174.208 93.1072 174.385L96.6068 166.754C97.0351 165.823 95.9216 164.431 96.3866 163.452C100.363 161.989 104.34 166.778 106.384 169.42C106.42 169.856 106.457 170.552 106.347 171.378C106.127 173.041 105.539 173.796 105.111 175.294C105.062 175.459 104.585 177.181 104.719 178.69C104.964 181.415 107.203 183.373 108.427 184.281C108.819 184.481 112.392 186.239 116.234 184.505C119.709 182.936 120.737 179.728 120.884 179.233C121.238 178.702 121.654 178.112 121.936 177.393C122.168 176.803 122.34 176.249 122.646 175.742C128.066 184.316 132.337 193.646 135.322 203.282C135.2 203.317 135.028 203.282 134.857 203.352C134.637 203.435 134.796 203.73 135.028 204.013C135.334 204.379 135.334 205.262 134.6 205.499L120.7 209.946C120.835 207.621 119.953 205.181 119.721 202.774L119.354 199.012C119.06 195.957 119.109 192.726 119.317 189.671C119.452 187.666 120.394 185.956 120.186 183.88C118.669 189.128 118.13 191.464 118.595 197.16L118.938 201.301C118.962 201.654 120.002 210.842 120.688 209.946C120.553 212.209 121.385 214.356 121.471 216.598C121.532 218.308 121.667 220.041 121.948 221.787L128.837 263.434C128.837 264.01 127.43 264.683 126.891 264.872C126.39 265.037 125.497 265.213 124.934 265.296C113.395 266.971 101.795 268.021 89.9013 268.305C88.7145 268.328 87.9314 267.595 87.8212 266.392L86.4751 252.593L86.3406 190.154C87.5398 189.258 96.5212 185.625 95.2607 183.703L97.9038 184.741C101.012 185.956 103.936 187.336 107.203 188.173C108.464 188.491 109.381 187.973 109.785 186.593C110.042 185.708 110.042 184.788 109.736 183.915C109.259 184.894 109.736 186.003 109.467 187.1C108.011 187.784 106.653 187.076 105.429 186.451L92.936 180.082C93.2052 181.698 93.9271 182.924 94.8204 184.21C93.6579 185.437 92.0427 186.333 90.2929 187.253L85.6554 189.706L79.8431 186.64C78.5461 185.956 77.3224 185.331 76.4169 184.151C76.9065 182.748 78.1667 181.651 78.5339 180C73.5048 182.582 69.0754 185.236 64.1195 187.336C63.1163 187.76 62.4555 187.595 61.807 186.864C61.3543 191.204 74.288 183.679 75.9888 183.361C76.2211 184.552 76.3681 185.331 77.1634 185.791C80.0267 187.418 82.5964 188.881 85.6554 190.355L85.533 250.743L83.6241 266.498C83.5507 267.1 83.1469 267.655 82.8166 267.973C82.3638 268.399 81.7765 268.328 81.0056 268.305C69.3689 268.01 58.026 267.019 46.7686 265.344C45.4471 265.143 44.0645 264.648 42.8408 263.763C45.4593 249.634 48.445 235.81 50.0602 221.764C50.2438 220.172 50.6231 218.614 50.6719 216.999C50.8555 211.633 52.4585 210.359 49.8154 209.557L40.4793 206.762C39.1454 206.361 37.726 205.262 36.1476 205.746C35.8172 205.852 36.0986 206.679 35.964 206.785C35.8172 206.902 35.5969 206.997 35.3401 206.914C35.6337 206.253 36.1354 205.594 36.429 204.78C38.6193 198.67 40.7729 192.69 43.5627 186.77C45.2391 183.231 46.732 179.74 49.0445 176.827C50.0358 177.086 50.1214 178.195 50.5619 179.41C55.1994 177.169 59.739 175.034 64.5479 173.265C64.9272 171.897 65.4412 170.611 65.2942 169.396C66.1875 167.427 68.1575 166.106 69.8829 164.596C71.4247 163.24 73.1133 162.921 74.9365 163.499V163.523Z" fill="#8A8C60"/>
<path d="M120.724 209.934C120.039 210.817 118.999 201.642 118.974 201.287L118.632 197.148C118.167 191.452 118.705 189.105 120.222 183.868C120.431 185.944 119.488 187.666 119.354 189.659C119.146 192.714 119.097 195.934 119.391 199L119.758 202.762C119.99 205.169 120.871 207.61 120.736 209.934H120.724Z" fill="#646649"/>
<path d="M107.325 206.702C107.545 205.9 107.704 205.511 107.704 204.686C108.341 205.264 108.671 206.207 107.325 206.702Z" fill="#646649"/>
<path d="M116.025 209.58C116.062 213.483 116.441 217.577 115.903 221.174C115.524 223.709 112.697 224.098 110.788 224.11C106.212 224.11 94.6241 225.939 94.5997 221.068L94.5263 208.448C94.5019 204.909 93.7676 201.596 94.3428 198.009C94.8077 200.073 94.4161 201.983 94.5753 204.402C98.2707 205.651 101.795 207.563 105.747 208.365C107.387 208.695 115.316 206.536 116.772 205.499C115.536 207.126 116.013 208.211 116.025 209.591V209.58Z" fill="#646649"/>
<path d="M105.637 223.591H97.7565C96.4472 223.202 95.0768 222.388 95.0522 220.879L94.832 205.464L105.588 209.485C105.637 211.372 105.086 212.965 105.478 214.674C106.114 217.483 105.514 220.301 105.649 223.603L105.637 223.591Z" fill="#8E9063"/>
<path d="M115.56 220.867C114.728 224.43 109.356 223.639 106.15 223.58L105.918 209.568L115.646 207.031C115.401 210.204 115.095 212.87 115.56 215.619C115.841 217.294 115.939 219.287 115.56 220.867Z" fill="#8E9063"/>
<path d="M76.0004 200.215C76.135 199.908 76.343 199.708 76.1962 199.496C75.9024 199.083 75.6211 198.953 75.2785 199.083C75.3029 198.245 75.0828 197.432 75.2907 196.618C76.086 196.618 76.7835 197.255 76.7835 198.481L76.7468 220.619C76.7468 221.964 75.7557 222.918 75.0828 223.402C73.5165 224.536 65.722 224.593 63.0911 224.193C61.3781 223.934 59.6527 224.204 58.1477 223.886C55.982 223.425 55.1867 221.881 55.0275 220.077C54.8317 217.847 54.5993 215.559 55.0521 213.354C55.4314 211.527 55.0765 209.285 55.2845 207.186C55.3946 206.066 53.3023 205.382 53.8284 204.72C54.8073 203.506 53.865 205.651 56.0188 206.241L61.4271 207.716C63.3605 208.248 65.1713 208.755 67.1291 207.882C70.0291 206.584 73.1004 205.771 76.0372 204.248C76.7468 203.352 76.5144 201.088 76.0004 200.203V200.215Z" fill="#646649"/>
<path d="M55.7621 221.291C55.444 216.538 55.6641 211.927 55.6763 206.856L64.8169 209.368C65.4776 209.545 64.1562 221.409 65.294 223.25C66.1751 218.448 65.3308 213.99 65.6856 209.202L76.3067 205.287C76.5269 210.393 76.5025 215.241 76.3555 220.218C76.3067 221.953 74.9607 223.614 72.9539 223.614C68.1451 223.639 63.5198 223.828 58.87 223.52C57.7443 223.45 55.8477 222.483 55.7743 221.291H55.7621Z" fill="#8E9063"/>
<path d="M125.864 69.3329H113.42V77.3531H125.864V69.3329Z" fill="#FCC9A6"/>
<path d="M128.592 76.9639H120.136V77.8367H128.592V76.9639Z" fill="#FCC9A6"/>
<path d="M121.214 78.0844C122.841 78.3438 124.481 78.6033 126.108 78.8745C126.365 78.91 126.61 78.9572 126.855 79.0279C127.344 79.1694 127.809 79.4408 128.201 79.7945C128.225 79.4526 127.968 79.1459 127.76 78.8982C127.528 78.6033 127.283 78.3084 126.965 78.1079C126.585 77.8602 126.133 77.7895 125.692 77.7305C124.591 77.5773 123.502 77.4475 122.401 77.3178C122.229 77.2941 122.07 77.2823 121.899 77.2588C121.728 77.2351 121.544 77.2234 121.373 77.2588C121.201 77.2941 121.042 77.4238 120.981 77.6125C120.92 77.8012 121.018 78.0607 121.189 78.0962L121.214 78.0844Z" fill="#FCC9A6"/>
<path d="M107.876 169.16C108.28 168.925 111.62 167.026 115.622 168.052C119.133 168.96 121.703 171.743 121.948 175.01" fill="#006480"/>
<path d="M87.478 46.4755C76.7222 59.4492 59.3712 75.2656 37.2726 75.7372C36.5997 75.7492 35.9144 75.7492 35.2292 75.7372" fill="#FCC9A6"/>
<path d="M136.203 75.7492C120.345 72.8124 99.0542 65.8065 88.4331 48.1268C88.1027 47.5842 87.7969 47.0298 87.491 46.4755" fill="#FCC9A6"/>
<path d="M113.432 69.3329H49.1306V74.7347H113.432V69.3329Z" fill="#FCC9A6"/>
<path d="M114.153 64.6153H60.0571V70.017H114.153V64.6153Z" fill="#FCC9A6"/>
<path d="M107.974 60.0391H67.3496V65.4409H107.974V60.0391Z" fill="#FCC9A6"/>
<path d="M104.303 56.9843H73.4675V62.3861H104.303V56.9843Z" fill="#FCC9A6"/>
<path d="M95.6031 52.2901H77.1753V57.6919H95.6031V52.2901Z" fill="#FCC9A6"/>
<path d="M92.1275 50.7805H81.2739V54.1182H92.1275V50.7805Z" fill="#FCC9A6"/>
<path d="M91.1866 49.0821H83.6367V51.1934H91.1866V49.0821Z" fill="#FCC9A6"/>
<path d="M89.1185 47.8319H85.105V49.0821H89.1185V47.8319Z" fill="#FCC9A6"/>
<path d="M88.3103 47.2421H86.3159V47.8909H88.3103V47.2421Z" fill="#FCC9A6"/>
<path d="M87.9189 46.8648H86.8301V47.2423H87.9189V46.8648Z" fill="#FCC9A6"/>
<path d="M87.7107 46.6761H87.1479V46.9238H87.7107V46.6761Z" fill="#FCC9A6"/>
<path d="M87.589 46.5699H87.3076V46.7232H87.589V46.5699Z" fill="#FCC9A6"/>
<path d="M87.4542 46.5934C87.5016 46.5934 87.54 46.5776 87.54 46.5582C87.54 46.5385 87.5016 46.5227 87.4542 46.5227C87.407 46.5227 87.3687 46.5385 87.3687 46.5582C87.3687 46.5776 87.407 46.5934 87.4542 46.5934Z" fill="#FCC9A6"/>
<path d="M87.4786 46.5368C87.4925 46.5368 87.5038 46.5257 87.5038 46.512C87.5038 46.4984 87.4925 46.4872 87.4786 46.4872C87.4647 46.4872 87.4534 46.4984 87.4534 46.512C87.4534 46.5257 87.4647 46.5368 87.4786 46.5368Z" fill="#FCC9A6"/>
<path d="M128.579 72.6589C128.176 72.3995 127.662 72.3405 127.172 72.3052C126.487 72.258 125.802 72.2343 125.117 72.2225C124.872 72.2225 124.615 72.2225 124.419 72.3523C124.113 72.5529 124.089 72.9774 124.089 73.3313C124.089 73.4492 124.089 73.579 124.15 73.6852C124.26 73.8974 124.541 73.9681 124.786 74.0036C125.74 74.1686 126.707 74.3338 127.662 74.499C128.127 74.5815 129.326 74.7702 129.619 74.2513C129.889 73.7677 128.959 72.8949 128.579 72.6472V72.6589Z" fill="#FCC9A6"/>
<path d="M119.403 183.184C118.558 183.219 117.996 184.092 117.91 184.906C117.824 185.72 118.045 186.533 117.996 187.347C117.898 188.845 116.87 190.249 117.102 191.735C117.188 192.242 117.408 192.714 117.555 193.197C117.788 193.976 117.824 194.801 117.849 195.615C117.971 198.811 118.081 202.02 118.203 205.216C118.228 205.806 118.252 206.407 118.179 206.997C118.069 207.953 117.751 209.001 118.265 209.826C118.742 210.582 119.831 210.971 119.99 211.833C120.112 212.446 119.709 213.013 119.452 213.577C118.791 215.029 119.072 216.833 120.125 218.036C120.406 218.354 120.798 218.649 121.214 218.591C121.825 218.508 122.082 217.801 122.205 217.222C122.511 215.842 122.804 214.462 123.11 213.082C123.294 212.234 123.465 211.301 123.049 210.536C122.817 210.11 122.413 209.78 122.095 209.402C121.581 208.778 121.299 208.011 121.104 207.243C120.822 206.112 120.712 204.932 120.639 203.778C120.418 200.262 120.541 196.736 120.981 193.244C121.177 191.758 121.091 189.742 119.574 189.388C120.847 188.668 121.165 187.052 121.348 185.637C121.654 183.255 121.96 180.872 122.266 178.49C122.413 177.334 122.56 176.178 122.682 175.01C122.193 175.576 118.583 183.219 119.366 183.184H119.403Z" fill="#95193D"/>
</g>
</svg>
