<svg width="200" height="58" viewBox="0 0 200 58" fill="none" xmlns="http://www.w3.org/2000/svg">
<rect width="117" height="58" rx="15" fill="#8D192E"/>
<path d="M51.4414 40.45C51.1654 40.45 50.9508 40.404 50.7974 40.312C50.6441 40.2353 50.5368 40.128 50.4754 39.99C50.4294 39.852 50.4064 39.7063 50.4064 39.553V30.698C50.4064 29.87 50.3144 29.1417 50.1304 28.513C49.9618 27.8843 49.6934 27.363 49.3254 26.949C48.9728 26.5197 48.5281 26.2053 47.9914 26.006C47.4701 25.7913 46.8568 25.684 46.1514 25.684H42.9544C42.7551 25.684 42.5711 25.661 42.4024 25.615C42.2491 25.5537 42.1264 25.4463 42.0344 25.293C41.9424 25.1397 41.8964 24.925 41.8964 24.649C41.8964 24.3577 41.9424 24.143 42.0344 24.005C42.1264 23.867 42.2491 23.7673 42.4024 23.706C42.5711 23.6447 42.7474 23.614 42.9314 23.614H46.0824C47.1251 23.614 48.0451 23.7673 48.8424 24.074C49.6398 24.3653 50.2991 24.81 50.8204 25.408C51.3571 25.9907 51.7558 26.719 52.0164 27.593C52.2924 28.467 52.4304 29.4867 52.4304 30.652V39.392C52.4304 39.5913 52.4074 39.7677 52.3614 39.921C52.3154 40.0743 52.2158 40.197 52.0624 40.289C51.9244 40.3963 51.7174 40.45 51.4414 40.45ZM62.0115 37.322C60.9075 37.322 59.9262 37.138 59.0675 36.77C58.2089 36.402 57.4805 35.896 56.8825 35.252C56.2999 34.5927 55.8552 33.826 55.5485 32.952C55.2572 32.078 55.1115 31.1197 55.1115 30.077V24.649C55.1115 24.465 55.1345 24.2963 55.1805 24.143C55.2419 23.9743 55.3492 23.844 55.5025 23.752C55.6559 23.66 55.8705 23.614 56.1465 23.614C56.4225 23.614 56.6295 23.66 56.7675 23.752C56.9209 23.844 57.0282 23.9743 57.0895 24.143C57.1509 24.2963 57.1815 24.4727 57.1815 24.672V30.077C57.1815 31.135 57.3732 32.055 57.7565 32.837C58.1399 33.619 58.6995 34.2247 59.4355 34.654C60.1715 35.0833 61.0532 35.298 62.0805 35.298C63.1692 35.298 64.0815 35.0757 64.8175 34.631C65.5535 34.1863 66.1055 33.573 66.4735 32.791C66.8569 31.9937 67.0485 31.0813 67.0485 30.054V24.511C67.0485 24.3577 67.0792 24.212 67.1405 24.074C67.2019 23.936 67.3015 23.8287 67.4395 23.752C67.5929 23.66 67.8075 23.614 68.0835 23.614C68.3595 23.614 68.5665 23.6677 68.7045 23.775C68.8579 23.867 68.9575 23.9897 69.0035 24.143C69.0649 24.2963 69.0955 24.4727 69.0955 24.672V30.123C69.0955 31.1503 68.9422 32.101 68.6355 32.975C68.3289 33.849 67.8689 34.6157 67.2555 35.275C66.6422 35.919 65.8985 36.425 65.0245 36.793C64.1505 37.1457 63.1462 37.322 62.0115 37.322ZM57.7105 34.516L57.3655 33.113H57.9405C58.3545 33.113 58.7379 32.9673 59.0905 32.676C59.4432 32.3693 59.7652 31.9553 60.0565 31.434C60.3479 30.9127 60.5779 30.3223 60.7465 29.663C60.9152 28.9883 61.0072 28.2907 61.0225 27.57L61.1145 24.557C61.1299 24.3883 61.1682 24.235 61.2295 24.097C61.2909 23.9437 61.3905 23.8287 61.5285 23.752C61.6819 23.66 61.8965 23.614 62.1725 23.614C62.4639 23.614 62.6862 23.66 62.8395 23.752C62.9929 23.844 63.0925 23.9667 63.1385 24.12C63.1845 24.258 63.1999 24.419 63.1845 24.603L63.0465 27.524C62.9852 28.5053 62.8319 29.4177 62.5865 30.261C62.3565 31.1043 62.0269 31.848 61.5975 32.492C61.1835 33.136 60.6929 33.6343 60.1255 33.987C59.5735 34.3397 58.9525 34.516 58.2625 34.516H57.7105ZM84.2393 29.824V36.195C84.2393 36.4863 84.2163 36.7087 84.1703 36.862C84.1243 37 84.0323 37.092 83.8943 37.138C83.7563 37.1993 83.5416 37.23 83.2503 37.23H77.6613C77.4773 37.23 77.3009 37.1993 77.1323 37.138C76.9789 37.0767 76.8563 36.977 76.7643 36.839C76.6723 36.6857 76.6263 36.471 76.6263 36.195C76.6263 35.9037 76.6723 35.689 76.7643 35.551C76.8563 35.3977 76.9789 35.298 77.1323 35.252C77.3009 35.1907 77.4849 35.16 77.6843 35.16H82.2153V29.893C82.2153 28.8963 82.0849 28.076 81.8243 27.432C81.5789 26.788 81.2109 26.3127 80.7203 26.006C80.2449 25.6993 79.6623 25.546 78.9723 25.546C78.4663 25.546 78.0063 25.661 77.5923 25.891C77.1783 26.1057 76.8179 26.4123 76.5113 26.811C76.2046 27.2097 75.9363 27.685 75.7063 28.237C75.4916 28.7737 75.3076 29.3717 75.1543 30.031L73.9122 36.126C73.8816 36.3253 73.8356 36.5093 73.7743 36.678C73.7129 36.8467 73.6056 36.977 73.4523 37.069C73.3143 37.1763 73.1149 37.23 72.8543 37.23C72.4556 37.23 72.1719 37.1457 72.0033 36.977C71.8346 36.793 71.7809 36.5323 71.8423 36.195L73.4753 28.099L74.2113 28.582C74.3646 28.0147 74.5486 27.478 74.7633 26.972C74.9779 26.4507 75.2156 25.983 75.4763 25.569C75.7523 25.1397 76.0743 24.7717 76.4422 24.465C76.8103 24.1583 77.2243 23.9207 77.6843 23.752C78.1596 23.5833 78.7116 23.499 79.3403 23.499C80.3829 23.499 81.2646 23.7367 81.9853 24.212C82.7213 24.672 83.2809 25.3773 83.6643 26.328C84.0476 27.2633 84.2393 28.4287 84.2393 29.824ZM73.4293 30.468L71.9573 24.971C71.8959 24.7563 71.8653 24.5647 71.8653 24.396C71.8653 24.2273 71.9189 24.0817 72.0263 23.959C72.1489 23.821 72.3559 23.7137 72.6473 23.637C72.9999 23.5603 73.2606 23.5603 73.4293 23.637C73.5979 23.7137 73.7129 23.8363 73.7743 24.005C73.8356 24.1583 73.8816 24.304 73.9122 24.442L74.9933 28.651L73.4293 30.468ZM97.8984 37.23C97.6224 37.23 97.4077 37.1917 97.2544 37.115C97.1164 37.0383 97.0167 36.931 96.9554 36.793C96.894 36.6397 96.8634 36.4863 96.8634 36.333V30.698C96.8634 29.5787 96.7024 28.651 96.3804 27.915C96.0737 27.179 95.606 26.627 94.9774 26.259C94.3487 25.8757 93.559 25.684 92.6084 25.684H88.2844C88.085 25.684 87.9087 25.661 87.7554 25.615C87.602 25.5537 87.4794 25.4463 87.3874 25.293C87.2954 25.1397 87.2494 24.925 87.2494 24.649C87.2494 24.3577 87.2954 24.143 87.3874 24.005C87.4794 23.867 87.602 23.7673 87.7554 23.706C87.9087 23.6447 88.0774 23.614 88.2614 23.614H92.5394C93.95 23.614 95.123 23.8823 96.0584 24.419C97.009 24.9403 97.722 25.7223 98.1974 26.765C98.6727 27.7923 98.9104 29.088 98.9104 30.652V36.172C98.9104 36.3713 98.8797 36.5553 98.8184 36.724C98.7724 36.8773 98.6727 37 98.5194 37.092C98.3814 37.184 98.1744 37.23 97.8984 37.23ZM88.4684 37.23C88.1924 37.23 87.9854 37.184 87.8474 37.092C87.7094 37 87.6097 36.8773 87.5484 36.724C87.5024 36.5553 87.4794 36.379 87.4794 36.195V30.514C87.4794 30.3147 87.5024 30.1383 87.5484 29.985C87.6097 29.8317 87.7094 29.7167 87.8474 29.64C88.0007 29.548 88.2154 29.502 88.4914 29.502C88.7827 29.502 88.9974 29.548 89.1354 29.64C89.2887 29.732 89.3884 29.8547 89.4344 30.008C89.4804 30.1613 89.5034 30.3377 89.5034 30.537V36.218C89.5034 36.402 89.4727 36.5707 89.4114 36.724C89.3654 36.8773 89.2657 37 89.1124 37.092C88.9744 37.184 88.7597 37.23 88.4684 37.23Z" fill="white"/>
<path d="M28 19L16 31L27.5 43L29.5 41L20 31L30 21L28 19Z" fill="#FFFEFE"/>
</svg>
